<svg width="496" height="496" viewBox="0 0 496 496" fill="none" xmlns="http://www.w3.org/2000/svg">
<g clip-path="url(#clip0_21_15)">
<mask id="mask0_21_15" style="mask-type:alpha" maskUnits="userSpaceOnUse" x="0" y="0" width="496" height="496">
<circle cx="248" cy="248" r="248" fill="#D9D9D9"/>
</mask>
<g mask="url(#mask0_21_15)">
<path d="M496 0H0V248H496V0Z" fill="white"/>
<path d="M496 248H0V496H496V248Z" fill="black"/>
<path d="M316.356 173.667C314.611 158.934 307.535 147.496 295.127 139.353C282.72 131.211 267.502 127.14 249.472 127.14C236.289 127.14 224.754 129.272 214.867 133.537C205.077 137.802 197.419 143.667 191.894 151.131C186.466 158.594 183.752 167.076 183.752 176.575C183.752 184.524 185.642 191.358 189.422 197.077C193.3 202.699 198.243 207.4 204.253 211.18C210.263 214.864 216.564 217.917 223.155 220.34C229.746 222.667 235.805 224.557 241.33 226.011L271.573 234.153C279.327 236.189 287.954 239 297.454 242.586C307.05 246.173 316.21 251.068 324.934 257.272C333.755 263.378 341.025 271.23 346.744 280.826C352.463 290.423 355.323 302.2 355.323 316.158C355.323 332.249 351.106 346.789 342.673 359.778C334.337 372.767 322.123 383.09 306.032 390.748C290.038 398.406 270.603 402.234 247.727 402.234C226.402 402.234 207.937 398.793 192.33 391.911C176.821 385.029 164.608 375.433 155.69 363.122C146.869 350.812 141.877 336.514 140.714 320.229H177.936C178.905 331.474 182.686 340.779 189.277 348.146C195.965 355.416 204.399 360.844 214.576 364.431C224.851 367.92 235.902 369.665 247.727 369.665C261.492 369.665 273.851 367.436 284.804 362.977C295.757 358.421 304.433 352.12 310.83 344.075C317.228 335.932 320.427 326.433 320.427 315.577C320.427 305.69 317.664 297.644 312.139 291.44C306.614 285.237 299.344 280.196 290.329 276.319C281.315 272.442 271.573 269.049 261.104 266.141L224.464 255.672C201.2 248.984 182.783 239.436 169.212 227.029C155.641 214.621 148.856 198.385 148.856 178.32C148.856 161.648 153.364 147.108 162.378 134.7C171.49 122.196 183.703 112.503 199.019 105.621C214.431 98.6415 231.637 95.152 250.635 95.152C269.828 95.152 286.888 98.5931 301.816 105.475C316.743 112.261 328.569 121.566 337.293 133.392C346.114 145.218 350.767 158.643 351.251 173.667H316.356Z" fill="url(#paint0_linear_21_15)"/>
</g>
</g>
<defs>
<linearGradient id="paint0_linear_21_15" x1="248" y1="-1.95235e-05" x2="248" y2="496" gradientUnits="userSpaceOnUse">
<stop offset="0.496524"/>
<stop offset="0.49811" stop-color="white"/>
</linearGradient>
<clipPath id="clip0_21_15">
<rect width="496" height="496" fill="white"/>
</clipPath>
</defs>
</svg>
